<svg id="Layer_1" data-name="Layer 1" xmlns="http://www.w3.org/2000/svg" viewBox="0 0 49.42 49.42"><title>BMW logo - Brandlogos.net</title><g id="BMW"><path d="M363.13,304a24.71,24.71,0,1,0,24.67,24.75v0A24.73,24.73,0,0,0,363.13,304Zm23,24.71a23,23,0,1,1-23-23,23,23,0,0,1,23,23Z" transform="translate(-338.38 -304)" style="fill:#6f6f6f"/><path d="M363.13,314v.79h0a13.82,13.82,0,0,1,13.78,13.78h.79A14.53,14.53,0,0,0,363.21,314h-.08m0,28.45a13.82,13.82,0,0,1-13.78-13.78h-.79a14.71,14.71,0,0,0,14.67,14.67" transform="translate(-338.38 -304)" style="fill:#6f6f6f"/><path id="W" d="M375,318.31a14.53,14.53,0,0,0,1.09,1.28l5-3.15a12.3,12.3,0,0,1-1-1.18l-3.12,2-.19.19.19-.19,1.38-2.76-1-1-2.76,1.37-.2.2.2-.2,2.07-3.15c-.4-.29-.69-.59-1.18-1l-3.15,5c.39.3.88.79,1.28,1.08l3-1.54.2-.1-.1.2Z" transform="translate(-338.38 -304)" style="fill:#6f6f6f"/><path id="M" d="M363.72,311.87l1.38-3.05.1-.3v.3l.1,4.13a7.42,7.42,0,0,1,1.47.2l-.19-6c-.69-.1-1.38-.1-2.07-.2l-1.38,3.36h0L361.8,307a14.23,14.23,0,0,0-2.06.2l-.2,6c.49-.1,1-.1,1.48-.2l.09-4.13v-.3l.1.3,1.38,3.05Z" transform="translate(-338.38 -304)" style="fill:#6f6f6f"/><path id="B_22d" data-name="B 22d" d="M352.7,316.7c.78-.79,1.28-1.78.49-2.76a1.67,1.67,0,0,0-1.77-.39h-.1v-.1a1.47,1.47,0,0,0-.52-1.48,1.13,1.13,0,0,0-1.09-.3c-.79.1-1.28.6-2.85,2.27-.5.49-1.18,1.38-1.58,1.87l4.24,4A38.13,38.13,0,0,0,352.7,316.7Zm-5.52-1a31,31,0,0,1,2.17-2.39,2.09,2.09,0,0,1,.49-.3.43.43,0,0,1,.59.4.81.81,0,0,1-.29.78c-.5.5-2.17,2.27-2.17,2.27Zm1.68,1.61s1.57-1.68,2.16-2.27c.2-.19.4-.39.49-.39a.62.62,0,0,1,.59,0,.35.35,0,0,1,.22.44l0,0c-.1.2-.29.49-.39.69l-2.17,2.26Z" transform="translate(-338.38 -304)" style="fill:#6f6f6f"/><path d="M363.13,314v14.67H348.46A14.7,14.7,0,0,1,363.13,314Z" transform="translate(-338.38 -304)" style="fill:#0066b1"/><path d="M377.8,328.71a14.65,14.65,0,0,1-14.63,14.67h0V328.71Z" transform="translate(-338.38 -304)" style="fill:#0066b1"/></g></svg>