<svg xmlns="http://www.w3.org/2000/svg" viewBox="0 0 210.71 168.95"><title>Honda Bike logo - Brandlogos.net</title><path d="M279.6,443.67h18.9v3.22c-2.74,0-4.38.24-4.71,2.32l0,3.89h14.7l0-4c-.13-1.71-1.81-1.95-4.68-1.83l0-3h18.82l0,3.19c-2.6-.07-4.62.2-4.75,2v13c.16,1.9,1.71,2.11,4.71,2.09v3.29l-18.85,0,0-3.23c2.91,0,4.56-.1,4.68-2.07v-4.1l-14.73,0v4c.18,2,1.69,2.08,4.71,2.08v3.28H279.65l0-3.31c3.4-.07,4.5-.45,4.69-2.13l0-13.2c-.22-2.18-1.95-2.29-4.68-2.29ZM343.3,443c13.81.1,19.47,5.72,19.47,12.73s-5.42,12.67-19.47,12.73c-13.68.05-19.48-5.71-19.48-12.73s6-12.83,19.48-12.73m0,4.59c6.93,0,8.56,3.73,8.56,8.23s-1.56,8-8.56,8.16-8.58-3.67-8.58-8.16,1.41-8.24,8.58-8.23m20.59-3.35v3.2c3.31,0,4.63.42,4.71,2.24v12.72c0,1.68-1.38,2.18-4.71,2.14v3.25h14.73v-3.31c-2.91,0-4.65-.48-4.71-2.15l0-12.18,12.5,16.71a2.73,2.73,0,0,0,2.19.93H401V449.7c0-1.88,2.07-2.26,4.71-2.24l0-3.2H390.39v3.24c2.62-.1,4.58.27,4.71,2.27l0,12-12.87-17a1.5,1.5,0,0,0-1.2-.5Zm43.59,0v2.83c3.32-.05,4.73.79,4.71,2.4v12.8a8.34,8.34,0,0,1-5.3,2.14v3.38h24.76c8.39-.47,14.57-3.57,14.7-11.13l0-1.87c-.37-7.58-8.06-10.56-14.64-10.55ZM421,448.4l0,14.71,9.59,0c3.13-.16,5.23-2.57,5.17-6.67l0-1.56c-.09-4.37-2.49-6.43-6.1-6.53Zm31.81-4.17v3.25c3.28.06,6,.4,5.22,2.27l-8.15,12.7c-1.18,1.64-2.4,2.1-5.32,2.13l0,3.24,14.77,0V464.6c-2.74,0-4.68-.35-3.84-2.06l1.23-1.79,15,0,1.19,1.82c.56,1.12-.72,2.23-4.21,2.06v3.22h20.62l0-3.31c-2.3.08-4.07-.09-5.42-2.09l-11.37-17a2.38,2.38,0,0,0-2.12-1.12Zm11.31,4.69L459.67,456H469Zm19.2-149.39c-43,21-95.79,42-149,63.07L293,379.53c-17.13,6.48-17.86,19.79-7.7,30,2.69,2.79,5.25,5.12,7.38,7.39,12.62,13.45,17.79,15.54,19.8,22.63h17.4L292,404.25c-9.41-10.31,1.41-14.49,10.87-17.38L352,369.57l69.07-24.28L455.14,333c10.47-3.48,19.39-6.34,25.33-23.37l3.18-8.27.43-1.6Zm-80.57,58.79L325.66,383.6c-7,2.11-13.56,4.36-19.28,6.32-6.22,2.12-10.64,3.08-12.63,4.92a4.37,4.37,0,0,0,0,6.3c1.27,1.16,2.44,2.27,3.7,3.44l30.91-8,8-2.1c-1.44-1.13-1.43-2.54.19-3.09l39.88-10.7,40.76-11,27.89-7.6a24.76,24.76,0,0,0,15.08-9.71A78.93,78.93,0,0,0,469,336.76c.32-.62.24-1-.28-1-19.16,7.79-44,15-65.93,22.57M299.68,406.65l9,8.28L355.28,406c-2-1.32-1.41-3,1.3-3.43l67.36-13c15.55-2.7,16.5-3.88,27.59-20.68,1-1.42.71-1.8-1.31-1.15l-61,15.66-69.63,18ZM311,417l10.2,9.59,56-6.94c-1.72-1.23-1.26-3,1-3.24l29.35-4.3c12.53-1.66,15.75-5.92,25.15-17.32.52-.71.07-.87-1.55-.48l-57.74,11ZM323.55,429l11.38,10.58h74.3L381,422Z" transform="translate(-278.65 -299.53)" style="fill:#ef1730;fill-rule:evenodd"/></svg>