<svg id="Layer_1" data-name="Layer 1" xmlns="http://www.w3.org/2000/svg" viewBox="0 0 174.38 46.78"><title>Kawasaki Motors logo - Brandlogos.net</title><g id="_参考画像" data-name=" 参考画像"><polygon points="7.95 36.63 9.96 36.63 9.96 44.85 14.61 44.85 14.61 46.52 7.95 46.52 7.95 36.63" style="fill:#221714"/><path d="M312.33,403.62a3.52,3.52,0,0,1,3.5-3.74c2.28,0,3.5,1.74,3.5,4.28h-5.15a1.77,1.77,0,0,0,1.81,1.77,1.32,1.32,0,0,0,1.37-.87h1.85a3,3,0,0,1-3.21,2.33,3.51,3.51,0,0,1-3.68-3.77m1.88-.76h3.15a1.49,1.49,0,0,0-1.5-1.52,1.59,1.59,0,0,0-1.65,1.52" transform="translate(-296.81 -360.61)" style="fill:#221714"/><path d="M320.44,400.08h1v-2.22h1.84v2.22h1.22v1.25h-1.22v3.76a.62.62,0,0,0,.7.71h.56v1.38s-.43,0-1.18,0c-.91,0-1.92-.36-1.92-1.7v-4.16h-1v-1.25Z" transform="translate(-296.81 -360.61)" style="fill:#221714"/><path d="M329.64,400.08h1v-2.22h1.84v2.22h1.22v1.25h-1.22v3.76a.62.62,0,0,0,.7.71h.56v1.38s-.43,0-1.18,0c-.91,0-1.92-.36-1.92-1.7v-4.16h-1v-1.25Z" transform="translate(-296.81 -360.61)" style="fill:#221714"/><path d="M337.51,401h0a2.25,2.25,0,0,1,2.06-1.12,2.45,2.45,0,0,1,2.45,2.66v4.63h-1.88v-4.36a1.18,1.18,0,0,0-1.23-1.3,1.48,1.48,0,0,0-1.44,1.63v4h-1.88v-9.89h1.88V401Z" transform="translate(-296.81 -360.61)" style="fill:#221714"/><path d="M343.53,403.62a3.52,3.52,0,0,1,3.5-3.74c2.28,0,3.5,1.74,3.5,4.28h-5.15a1.77,1.77,0,0,0,1.81,1.77,1.32,1.32,0,0,0,1.37-.87h1.85a3,3,0,0,1-3.21,2.33,3.51,3.51,0,0,1-3.68-3.77m1.88-.76h3.15a1.49,1.49,0,0,0-1.5-1.52,1.59,1.59,0,0,0-1.65,1.52" transform="translate(-296.81 -360.61)" style="fill:#221714"/><path d="M362.51,405.85h0a3,3,0,0,1-2.78,1.54,4.49,4.49,0,0,1-3.47-1.44,5.87,5.87,0,0,1,.33-7.72,4.49,4.49,0,0,1,3.18-1.13c2.49,0,3.91,1.37,4.23,3.31h-2a2.09,2.09,0,0,0-2.23-1.65c-1.87,0-2.8,1.55-2.8,3.52s1.06,3.5,2.77,3.5a2.42,2.42,0,0,0,2.55-2.24v-.06h-2.38v-1.55h4.16v5.26h-1.51l-.07-1.33Z" transform="translate(-296.81 -360.61)" style="fill:#221714"/><path d="M365.56,403.64a3.71,3.71,0,1,1,3.71,3.75,3.61,3.61,0,0,1-3.71-3.75m5.51,0c0-1.39-.65-2.32-1.8-2.32s-1.8.94-1.8,2.32.64,2.31,1.8,2.31,1.8-.92,1.8-2.31" transform="translate(-296.81 -360.61)" style="fill:#221714"/><path d="M374.16,403.64a3.71,3.71,0,1,1,3.71,3.75,3.61,3.61,0,0,1-3.71-3.75m5.51,0c0-1.39-.65-2.32-1.8-2.32s-1.8.94-1.8,2.32.64,2.31,1.8,2.31,1.8-.92,1.8-2.31" transform="translate(-296.81 -360.61)" style="fill:#221714"/><path d="M382.78,403.64c0-2.22,1.26-3.75,3-3.75a2.28,2.28,0,0,1,2,1h0v-3.65h1.88v9.9h-1.81v-.93h0a2.36,2.36,0,0,1-2.12,1.13c-1.78,0-3-1.45-3-3.75m5.12,0c0-1.36-.44-2.27-1.65-2.27-1,0-1.56.91-1.56,2.23s.54,2.17,1.51,2.17c1.12,0,1.7-.83,1.7-2.13" transform="translate(-296.81 -360.61)" style="fill:#221714"/><polygon points="97.22 36.68 105.17 36.68 105.17 38.37 102.2 38.37 102.2 46.57 100.2 46.57 100.2 38.37 97.22 38.37 97.22 36.68" style="fill:#221714"/><path d="M403.41,397.29h1.88V399h-1.88Zm0,2.79h1.88v7.1h-1.88Z" transform="translate(-296.81 -360.61)" style="fill:#221714"/><path d="M407.49,400.08h1.81v1h0a2.32,2.32,0,0,1,2.06-1.15,2.1,2.1,0,0,1,2,1.25h0a2.47,2.47,0,0,1,2.13-1.25,2.24,2.24,0,0,1,2.34,2.52v4.78H416v-4.46c0-.8-.4-1.22-1.09-1.22s-1.27.61-1.27,1.55v4.12h-1.88v-4.46c0-.8-.4-1.22-1.09-1.22s-1.27.61-1.27,1.55v4.12H407.5v-7.08Z" transform="translate(-296.81 -360.61)" style="fill:#221714"/><path d="M419.37,403.62a3.52,3.52,0,0,1,3.5-3.74c2.28,0,3.5,1.74,3.5,4.28h-5.15a1.77,1.77,0,0,0,1.81,1.77,1.32,1.32,0,0,0,1.37-.87h1.85a3,3,0,0,1-3.21,2.33,3.51,3.51,0,0,1-3.68-3.77m1.88-.76h3.15a1.49,1.49,0,0,0-1.5-1.52,1.59,1.59,0,0,0-1.65,1.52" transform="translate(-296.81 -360.61)" style="fill:#221714"/><path d="M427.67,404.88h1.74a1.37,1.37,0,0,0,1.55,1.18c.84,0,1.3-.32,1.3-.81,0-.68-.9-.75-1.87-.94-1.27-.25-2.52-.6-2.52-2.15s1.27-2.27,2.89-2.27c1.87,0,2.91.92,3,2.35h-1.7c-.08-.76-.57-1-1.37-1s-1.22.28-1.22.79.94.66,1.95.87c1.19.25,2.5.58,2.5,2.24,0,1.43-1.22,2.28-3,2.28-2.06,0-3.21-1-3.32-2.5" transform="translate(-296.81 -360.61)" style="fill:#221714"/><path d="M442.68,403.36H441v3.82H439v-9.89h4.35a3.49,3.49,0,0,1,2.59.92,3,3,0,0,1,.89,2.15,2.74,2.74,0,0,1-2,2.77l2.48,4H445l-2.3-3.82ZM441,401.73h2.08c1.05,0,1.6-.49,1.6-1.36s-.58-1.34-1.57-1.34h-2.1v2.7Z" transform="translate(-296.81 -360.61)" style="fill:#221714"/><path d="M448.09,403.64a3.71,3.71,0,1,1,3.71,3.75,3.61,3.61,0,0,1-3.71-3.75m5.51,0c0-1.39-.65-2.32-1.8-2.32s-1.8.94-1.8,2.32.64,2.31,1.8,2.31,1.8-.92,1.8-2.31" transform="translate(-296.81 -360.61)" style="fill:#221714"/><rect x="160.43" y="36.68" width="1.88" height="9.89" style="fill:#221714"/><rect x="164.54" y="36.68" width="1.88" height="9.89" style="fill:#221714"/><polygon points="46.11 7.41 54.19 7.41 56.95 16.48 59.8 7.41 66.56 7.41 69.16 16.48 72.17 7.41 79.82 7.41 73.88 26.73 66.3 26.73 63.25 17.27 60.65 26.73 52.78 26.73 46.11 7.41" style="fill:#e60012"/><path d="M397.26,380.59h7.11a2.86,2.86,0,0,0,3,2.91c2.47,0,2.39-1.45,2.39-1.45s.08-1.49-2.64-1.93c-3.05-.46-9.53-1-9.53-6.41,0,0-.58-6.61,9.39-6.61,7.07,0,9.46,3.1,9.46,6.73h-6.77a2.47,2.47,0,0,0-2.5-2.14c-1.48,0-2.32.54-2.32,1.23,0,.9.58,1.26,4.71,1.81,4.75,1,7.47,2.18,7.47,7.07s-5.11,6.48-9.71,6.48-10.08-1.53-10.08-7.69" transform="translate(-296.81 -360.61)" style="fill:#e60012"/><path d="M425.62,374.64h-7.08s-1.51-7.81,10.39-7.81c0,0,8.82-.51,9.29,6.34s-.48,11.51,1.56,14.17h-7.59a9.58,9.58,0,0,1-1.05-1.78,8.52,8.52,0,0,1-6.38,2.39c-4.35,0-6.8-2.54-6.8-5.8s1.9-5.66,8-6.75c2.42-.43,4.6-.72,4.71-2.07s-1.74-1.6-2.21-1.6a2.63,2.63,0,0,0-2.8,2.88m.77,5.42c-1.67.73-.83,2-.83,2a2.47,2.47,0,0,0,2.83.87c2.87-.76,2.65-4.57,2.65-4.57s-3,1-4.64,1.7" transform="translate(-296.81 -360.61)" style="fill:#e60012"/><rect x="166.59" width="7.79" height="5.44" style="fill:#e60012"/><rect x="166.59" y="7.41" width="7.79" height="19.33" style="fill:#e60012"/><polygon points="151.39 26.74 143.6 26.74 143.6 0 151.39 0 151.39 12 155.35 7.4 164.52 7.4 157.74 14.62 165.66 26.73 156.67 26.73 152.39 20.22 151.39 21.3 151.39 26.74" style="fill:#e60012"/><polygon points="0 0 8.12 0 8.12 8.15 16.24 0 26.39 0 16.03 10.66 27.16 26.74 16.6 26.74 10.22 16.66 8.11 18.83 8.11 26.74 0 26.74 0 0" style="fill:#e60012"/><path d="M330.68,374.64H323.6s-1.5-7.81,10.39-7.81c0,0,8.82-.51,9.3,6.34s-.48,11.51,1.55,14.17h-7.58a9.59,9.59,0,0,1-1-1.78,8.52,8.52,0,0,1-6.38,2.39c-4.35,0-6.8-2.54-6.8-5.8s1.89-5.66,8-6.75c2.43-.43,4.61-.72,4.72-2.07s-1.74-1.6-2.21-1.6a2.63,2.63,0,0,0-2.8,2.88m.77,5.42c-1.67.73-.83,2-.83,2a2.47,2.47,0,0,0,2.83.87c2.87-.76,2.65-4.57,2.65-4.57s-3,1-4.64,1.7" transform="translate(-296.81 -360.61)" style="fill:#e60012"/><path d="M383.4,374.64h-7.08s-1.51-7.81,10.39-7.81c0,0,8.82-.51,9.29,6.34s-.48,11.51,1.56,14.17H390a9.58,9.58,0,0,1-1.05-1.78,8.52,8.52,0,0,1-6.38,2.39c-4.35,0-6.8-2.54-6.8-5.8s1.89-5.66,8-6.75c2.43-.43,4.6-.72,4.71-2.07s-1.74-1.6-2.21-1.6a2.63,2.63,0,0,0-2.8,2.88m.77,5.42c-1.66.73-.83,2-.83,2a2.47,2.47,0,0,0,2.83.87c2.87-.76,2.65-4.57,2.65-4.57s-3,1-4.64,1.7" transform="translate(-296.81 -360.61)" style="fill:#e60012"/></g></svg>